<svg width="132" height="116" viewBox="0 0 132 116" fill="none" xmlns="http://www.w3.org/2000/svg">
<circle cx="45" cy="45" r="44.5" stroke="#D7D7D7" stroke-dasharray="12 12"/>
<rect x="71.5586" y="60.3271" width="8.44795" height="23.4665" rx="4" transform="rotate(-26.6243 71.5586 60.3271)" fill="#FF90A2"/>
<rect x="55.3647" y="56.895" width="8.44795" height="23.4665" rx="4" transform="rotate(-9.84826 55.3647 56.895)" fill="#C0EF59" fill-opacity="0.5"/>
<rect x="74.6396" y="41.3384" width="8.44794" height="23.4665" rx="4" transform="rotate(-41.9992 74.6396 41.3384)" fill="#4795F7"/>
<rect x="96.1357" y="62.7068" width="8.44795" height="23.4665" rx="4" transform="rotate(5.4373 96.1357 62.7068)" fill="#CD6DE9" fill-opacity="0.5"/>
<rect x="71.5469" y="91.7224" width="8.44794" height="17.3979" rx="4" transform="rotate(-76.6285 71.5469 91.7224)" fill="#00EBB8"/>
<rect x="55.1307" y="48.502" width="8.44794" height="17.3979" rx="4" transform="rotate(-76.6285 55.1307 48.502)" fill="#00CEF3" fill-opacity="0.5"/>
<rect x="94.1271" y="107.303" width="8.44794" height="19.6774" rx="4" transform="rotate(-118.786 94.1271 107.303)" fill="#FF90A2"/>
<rect x="96.1202" y="36.0161" width="8.44795" height="25.3097" rx="4" transform="rotate(-26.6332 96.1202 36.0161)" fill="#FFB982"/>
</svg>
