<svg width="151" height="106" viewBox="0 0 151 106" fill="none" xmlns="http://www.w3.org/2000/svg">
<circle cx="31" cy="70" r="30.5" stroke="#D7D7D7" stroke-dasharray="12 12"/>
<rect x="88.8063" y="68.7297" width="8.44795" height="23.4665" rx="4" transform="rotate(159.717 88.8063 68.7297)" fill="#FF90A2"/>
<rect x="108.059" y="37.0305" width="8.44795" height="23.4665" rx="4" transform="rotate(159.717 108.059 37.0305)" fill="#FF90A2"/>
<rect x="104.522" y="73.9294" width="8.44795" height="23.4665" rx="4" transform="rotate(176.493 104.522 73.9294)" fill="#C0EF59" fill-opacity="0.5"/>
<rect x="83.6469" y="87.2622" width="8.44795" height="23.4665" rx="4" transform="rotate(144.342 83.6469 87.2622)" fill="#4795F7"/>
<rect x="118.206" y="82.8223" width="8.44794" height="23.4665" rx="4" transform="rotate(-166.229 118.206 82.8223)" fill="#4795F7"/>
<rect x="64.6424" y="63.6501" width="8.44795" height="23.4665" rx="4" transform="rotate(-168.221 64.6424 63.6501)" fill="#CD6DE9"/>
<rect x="123.271" y="32.7161" width="8.44795" height="23.4665" rx="4" transform="rotate(-168.221 123.271 32.7161)" fill="#CD6DE9" fill-opacity="0.5"/>
<rect x="92.2856" y="37.5278" width="8.44795" height="17.3979" rx="4" transform="rotate(109.713 92.2856 37.5278)" fill="#00EBB8"/>
<rect x="127.993" y="39.0193" width="8.44795" height="17.3979" rx="4" transform="rotate(77.61 127.993 39.0193)" fill="#00EBB8"/>
<rect x="103.828" y="82.2971" width="8.44795" height="17.3979" rx="4" transform="rotate(109.713 103.828 82.2971)" fill="#00CEF3"/>
<rect x="71.5645" y="19.5486" width="8.44794" height="19.6774" rx="4" transform="rotate(67.5558 71.5645 19.5486)" fill="#FF90A2" fill-opacity="0.5"/>
<rect x="61.7098" y="90.1792" width="8.44795" height="25.3097" rx="4" transform="rotate(159.708 61.7098 90.1792)" fill="#FFB982" fill-opacity="0.5"/>
</svg>
