<svg width="163" height="144" viewBox="0 0 163 144" fill="none" xmlns="http://www.w3.org/2000/svg">
<circle cx="106" cy="57" r="56.5" stroke="#D7D7D7" stroke-dasharray="12 12"/>
<rect x="56.8058" y="106.73" width="8.44795" height="23.4665" rx="4" transform="rotate(159.717 56.8058 106.73)" fill="#FF90A2"/>
<rect x="76.0583" y="75.0305" width="8.44795" height="23.4665" rx="4" transform="rotate(159.717 76.0583 75.0305)" fill="#FF90A2"/>
<rect x="72.5215" y="111.929" width="8.44795" height="23.4665" rx="4" transform="rotate(176.493 72.5215 111.929)" fill="#C0EF59" fill-opacity="0.5"/>
<rect x="51.6464" y="125.262" width="8.44795" height="23.4665" rx="4" transform="rotate(144.342 51.6464 125.262)" fill="#4795F7"/>
<rect x="86.2053" y="120.822" width="8.44794" height="23.4665" rx="4" transform="rotate(-166.229 86.2053 120.822)" fill="#4795F7"/>
<rect x="32.6419" y="101.65" width="8.44795" height="23.4665" rx="4" transform="rotate(-168.221 32.6419 101.65)" fill="#CD6DE9"/>
<rect x="91.2701" y="70.7161" width="8.44795" height="23.4665" rx="4" transform="rotate(-168.221 91.2701 70.7161)" fill="#CD6DE9" fill-opacity="0.5"/>
<rect x="60.2852" y="75.5278" width="8.44795" height="17.3979" rx="4" transform="rotate(109.713 60.2852 75.5278)" fill="#00EBB8"/>
<rect x="95.9927" y="77.0193" width="8.44795" height="17.3979" rx="4" transform="rotate(77.61 95.9927 77.0193)" fill="#00EBB8"/>
<rect x="71.8271" y="120.297" width="8.44795" height="17.3979" rx="4" transform="rotate(109.713 71.8271 120.297)" fill="#00CEF3"/>
<rect x="39.564" y="57.5486" width="8.44794" height="19.6774" rx="4" transform="rotate(67.5558 39.564 57.5486)" fill="#FF90A2" fill-opacity="0.5"/>
<rect x="29.7093" y="128.179" width="8.44795" height="25.3097" rx="4" transform="rotate(159.708 29.7093 128.179)" fill="#FFB982" fill-opacity="0.5"/>
</svg>
