<svg width="56" height="35" viewBox="0 0 56 35" fill="none" xmlns="http://www.w3.org/2000/svg">
<rect width="56" height="35" rx="10" fill="#FF1A1A"/>
<path d="M20.6364 11.3636V23H19.2727L12.9318 13.8636H12.8182V23H11.4091V11.3636H12.7727L19.1364 20.5227H19.25V11.3636H20.6364ZM22.816 23V11.3636H29.8387V12.6136H24.2251V16.5455H29.4751V17.7955H24.2251V21.75H29.9296V23H22.816ZM33.8521 23L30.6703 11.3636H32.1021L34.5339 20.8409H34.6476L37.1248 11.3636H38.7157L41.193 20.8409H41.3066L43.7385 11.3636H45.1703L41.9885 23H40.5339L37.9657 13.7273H37.8748L35.3066 23H33.8521Z" fill="white"/>
</svg>
