<svg width="21" height="21" viewBox="0 0 21 21" fill="none" xmlns="http://www.w3.org/2000/svg">
<g clip-path="url(#clip0_347_79)">
<path d="M9.52584 2.94583C10.7894 2.94468 12.0249 3.31832 13.0761 4.01948C14.1273 4.72065 14.9469 5.71784 15.4313 6.8849C15.9156 8.05196 16.043 9.33645 15.7972 10.5759C15.5513 11.8153 14.9435 12.954 14.0504 13.8479C13.1573 14.7418 12.0192 15.3507 10.78 15.5977C9.54075 15.8446 8.25614 15.7185 7.08863 15.2352C5.92113 14.7519 4.92319 13.9332 4.22107 12.8826C3.51894 11.8321 3.14418 10.5969 3.14417 9.33333C3.15183 7.64263 3.82646 6.02327 5.02143 4.82721C6.21641 3.63114 7.83515 2.95504 9.52584 2.94583ZM9.52584 1.75C8.026 1.75 6.55984 2.19475 5.31277 3.02802C4.06569 3.86129 3.09372 5.04564 2.51976 6.43132C1.94579 7.81699 1.79562 9.34175 2.08822 10.8128C2.38082 12.2838 3.10307 13.635 4.16362 14.6956C5.22416 15.7561 6.57538 16.4783 8.04641 16.771C9.51743 17.0636 11.0422 16.9134 12.4279 16.3394C13.8135 15.7655 14.9979 14.7935 15.8312 13.5464C16.6644 12.2993 17.1092 10.8332 17.1092 9.33333C17.1092 7.32211 16.3102 5.39326 14.8881 3.97111C13.4659 2.54896 11.5371 1.75 9.52584 1.75Z" fill="#A8A8A8"/>
<path d="M20.4167 19.4192L16.1175 15.0908L15.2892 15.9133L19.5884 20.2417C19.6424 20.296 19.7065 20.3393 19.7773 20.3688C19.848 20.3984 19.9238 20.4138 20.0005 20.4141C20.0771 20.4143 20.1531 20.3995 20.224 20.3704C20.2949 20.3413 20.3594 20.2986 20.4138 20.2446C20.4682 20.1906 20.5114 20.1264 20.541 20.0557C20.5705 19.985 20.5859 19.9091 20.5862 19.8325C20.5864 19.7558 20.5716 19.6799 20.5425 19.609C20.5135 19.538 20.4707 19.4735 20.4167 19.4192Z" fill="#A8A8A8"/>
</g>
<defs>
<clipPath id="clip0_347_79">
<rect width="21" height="21" fill="white"/>
</clipPath>
</defs>
</svg>
