<svg width="93" height="84" viewBox="0 0 93 84" fill="none" xmlns="http://www.w3.org/2000/svg">
<rect x="55.7108" y="26.9573" width="8.44795" height="23.4665" rx="4" transform="rotate(69.6902 55.7108 26.9573)" fill="#FF90A2"/>
<rect x="60.9032" y="11.2391" width="8.44795" height="23.4665" rx="4" transform="rotate(86.4663 60.9032 11.2391)" fill="#C0EF59"/>
<rect x="74.2456" y="32.1082" width="8.44795" height="23.4665" rx="4" transform="rotate(54.3154 74.2456 32.1082)" fill="#4795F7"/>
<rect x="50.6425" y="51.1237" width="8.44794" height="23.4665" rx="4" transform="rotate(101.752 50.6425 51.1237)" fill="#CD6DE9"/>
<rect x="24.5073" y="23.4926" width="8.44795" height="17.3979" rx="4" transform="rotate(19.6861 24.5073 23.4926)" fill="#00EBB8"/>
<rect x="69.2712" y="11.9297" width="8.44795" height="17.3979" rx="4" transform="rotate(19.6861 69.2712 11.9297)" fill="#00CEF3"/>
<rect x="6.53784" y="44.2222" width="8.44794" height="19.6774" rx="4" transform="rotate(-22.4711 6.53784 44.2222)" fill="#FF90A2"/>
<rect x="77.1731" y="54.0438" width="8.44795" height="25.3097" rx="4" transform="rotate(69.6814 77.1731 54.0438)" fill="#FFB982"/>
</svg>
