<svg width="97" height="98" viewBox="0 0 97 98" fill="none" xmlns="http://www.w3.org/2000/svg">
<rect x="65.8002" y="51.4342" width="8.44795" height="23.4665" rx="4" transform="rotate(136.679 65.8002 51.4342)" fill="#FF90A2"/>
<rect x="82.2974" y="50.0691" width="8.44795" height="23.4665" rx="4" transform="rotate(153.455 82.2974 50.0691)" fill="#C0EF59"/>
<rect x="68.3047" y="70.5077" width="8.44795" height="23.4665" rx="4" transform="rotate(121.304 68.3047 70.5077)" fill="#4795F7"/>
<rect x="41.5756" y="56.2159" width="8.44795" height="23.4665" rx="4" transform="rotate(168.741 41.5756 56.2159)" fill="#CD6DE9"/>
<rect x="56.7914" y="21.3591" width="8.44794" height="17.3979" rx="4" transform="rotate(86.675 56.7914 21.3591)" fill="#00EBB8"/>
<rect x="84.9329" y="58.0411" width="8.44794" height="17.3979" rx="4" transform="rotate(86.675 84.9329 58.0411)" fill="#00CEF3"/>
<rect x="30.687" y="12.9229" width="8.44794" height="19.6774" rx="4" transform="rotate(44.5179 30.687 12.9229)" fill="#FF90A2"/>
<rect x="49.2588" y="81.777" width="8.44794" height="25.3097" rx="4" transform="rotate(136.67 49.2588 81.777)" fill="#FFB982"/>
</svg>
