<svg width="29" height="29" viewBox="0 0 29 29" fill="none" xmlns="http://www.w3.org/2000/svg">
<path d="M14.5 11.5032C13.9073 11.5032 13.3279 11.6789 12.8351 12.0082C12.3423 12.3375 11.9582 12.8055 11.7314 13.3531C11.5046 13.9006 11.4453 14.5032 11.5609 15.0845C11.6765 15.6658 11.9619 16.1997 12.381 16.6188C12.8001 17.0379 13.3341 17.3233 13.9154 17.4389C14.4967 17.5545 15.0992 17.4952 15.6468 17.2684C16.1943 17.0416 16.6623 16.6575 16.9916 16.1647C17.3209 15.6719 17.4967 15.0925 17.4967 14.4998C17.4967 14.1063 17.4191 13.7166 17.2685 13.3531C17.118 12.9895 16.8972 12.6591 16.619 12.3809C16.3407 12.1026 16.0103 11.8819 15.6468 11.7313C15.2832 11.5807 14.8935 11.5032 14.5 11.5032ZM26.4987 8.54275C26.4924 7.60963 26.3206 6.68503 25.9912 5.81192C25.7487 5.17303 25.3734 4.59283 24.8902 4.1096C24.407 3.62638 23.8268 3.25112 23.1879 3.00859C22.3148 2.67927 21.3902 2.50744 20.4571 2.50109C18.8983 2.4165 18.4392 2.4165 14.5 2.4165C10.5608 2.4165 10.1017 2.4165 8.54291 2.50109C7.60978 2.50744 6.68518 2.67927 5.81207 3.00859C5.17318 3.25112 4.59298 3.62638 4.10976 4.1096C3.62653 4.59283 3.25127 5.17303 3.00874 5.81192C2.67943 6.68503 2.5076 7.60963 2.50124 8.54275C2.41666 10.1015 2.41666 10.5607 2.41666 14.4998C2.41666 18.439 2.41666 18.8982 2.50124 20.4569C2.51425 21.3933 2.68584 22.3208 3.00874 23.1998C3.2502 23.8358 3.62515 24.4126 4.10832 24.8915C4.58947 25.3776 5.17092 25.7529 5.81207 25.9911C6.68518 26.3204 7.60978 26.4922 8.54291 26.4986C10.1017 26.5832 10.5608 26.5832 14.5 26.5832C18.4392 26.5832 18.8983 26.5832 20.4571 26.4986C21.3902 26.4922 22.3148 26.3204 23.1879 25.9911C23.8291 25.7529 24.4105 25.3776 24.8917 24.8915C25.3748 24.4126 25.7498 23.8358 25.9912 23.1998C26.3202 22.3224 26.492 21.3939 26.4987 20.4569C26.5833 18.8982 26.5833 18.439 26.5833 14.4998C26.5833 10.5607 26.5833 10.1015 26.4987 8.54275ZM23.4296 18.2094C23.3908 18.9551 23.2317 19.6896 22.9583 20.3844C22.7237 20.964 22.375 21.4906 21.9329 21.9327C21.4907 22.3749 20.9642 22.7236 20.3846 22.9582C19.6831 23.2163 18.9446 23.3591 18.1975 23.3811H10.8025C10.0554 23.3591 9.31683 23.2163 8.61541 22.9582C8.0162 22.7355 7.47507 22.3803 7.03249 21.919C6.59467 21.4855 6.25655 20.9618 6.04166 20.3844C5.78254 19.6837 5.64364 18.9443 5.63082 18.1973V10.8023C5.64364 10.0554 5.78254 9.31595 6.04166 8.61525C6.26433 8.01605 6.61957 7.47492 7.08082 7.03234C7.51623 6.59688 8.03935 6.25912 8.61541 6.0415C9.31683 5.78341 10.0554 5.64059 10.8025 5.61859H18.1975C18.9446 5.64059 19.6831 5.78341 20.3846 6.0415C20.9838 6.26418 21.5249 6.61942 21.9675 7.08067C22.4053 7.51416 22.7434 8.03783 22.9583 8.61525C23.2164 9.31668 23.3592 10.0553 23.3812 10.8023V14.4998C23.3812 16.989 23.4658 17.2428 23.4296 18.1973V18.2094ZM21.4962 9.21942C21.3524 8.82911 21.1255 8.47466 20.8314 8.18051C20.5373 7.88637 20.1828 7.65954 19.7925 7.51567C19.2566 7.3299 18.6921 7.23992 18.125 7.24984H10.875C10.305 7.25541 9.74045 7.36177 9.20749 7.564C8.82315 7.70134 8.47245 7.91891 8.17869 8.20225C7.88494 8.48559 7.65485 8.82821 7.50374 9.20734C7.32826 9.74549 7.24253 10.3088 7.24999 10.8748V18.1248C7.26197 18.6942 7.36813 19.2576 7.56416 19.7923C7.70802 20.1826 7.93485 20.5371 8.229 20.8312C8.52314 21.1254 8.8776 21.3522 9.26791 21.4961C9.78346 21.6857 10.326 21.7917 10.875 21.8103H18.125C18.695 21.8047 19.2595 21.6983 19.7925 21.4961C20.1828 21.3522 20.5373 21.1254 20.8314 20.8312C21.1255 20.5371 21.3524 20.1826 21.4962 19.7923C21.6985 19.2594 21.8048 18.6948 21.8104 18.1248V10.8748C21.8108 10.3043 21.7042 9.73867 21.4962 9.20734V9.21942ZM14.5 19.1157C13.8944 19.1157 13.2948 18.9962 12.7354 18.7641C12.1761 18.532 11.668 18.1918 11.2404 17.763C10.8127 17.3342 10.4739 16.8253 10.2432 16.2653C10.0126 15.7054 9.89465 15.1054 9.89624 14.4998C9.89624 13.5864 10.1673 12.6935 10.675 11.9342C11.1827 11.1748 11.9043 10.5832 12.7485 10.2342C13.5926 9.88522 14.5213 9.79452 15.417 9.9736C16.3127 10.1527 17.1352 10.5935 17.7802 11.2402C18.4253 11.887 18.8639 12.7106 19.0407 13.6068C19.2174 14.5029 19.1243 15.4314 18.7731 16.2746C18.4219 17.1178 17.8284 17.8379 17.0677 18.3436C16.307 18.8494 15.4134 19.1181 14.5 19.1157ZM19.3333 10.7903C19.0662 10.762 18.819 10.6359 18.6394 10.4362C18.4597 10.2365 18.3603 9.9774 18.3603 9.7088C18.3603 9.44019 18.4597 9.18109 18.6394 8.98141C18.819 8.78174 19.0662 8.65561 19.3333 8.62734C19.6004 8.65561 19.8476 8.78174 20.0273 8.98141C20.2069 9.18109 20.3063 9.44019 20.3063 9.7088C20.3063 9.9774 20.2069 10.2365 20.0273 10.4362C19.8476 10.6359 19.6004 10.762 19.3333 10.7903Z" fill="#7D17FF"/>
</svg>
