<svg width="29" height="29" viewBox="0 0 29 29" fill="none" xmlns="http://www.w3.org/2000/svg">
<path d="M14.5 2.4165C7.82999 2.4165 2.41666 7.82984 2.41666 14.4998C2.41666 21.1698 7.82999 26.5832 14.5 26.5832C21.17 26.5832 26.5833 21.1698 26.5833 14.4998C26.5833 7.82984 21.17 2.4165 14.5 2.4165ZM20.1067 10.6332C19.9254 12.5423 19.14 17.1823 18.7412 19.3211C18.5721 20.2273 18.2337 20.5294 17.9196 20.5657C17.2187 20.6261 16.6871 20.1065 16.0104 19.6594C14.9471 18.9586 14.3429 18.5236 13.3158 17.8469C12.1196 17.0615 12.8929 16.6265 13.5817 15.9257C13.7629 15.7444 16.8562 12.929 16.9167 12.6753C16.925 12.6368 16.9239 12.5969 16.9134 12.559C16.9029 12.5211 16.8833 12.4864 16.8562 12.4578C16.7837 12.3973 16.6871 12.4215 16.6025 12.4336C16.4937 12.4578 14.8021 13.5815 11.5033 15.8048C11.02 16.1311 10.585 16.3003 10.1983 16.2882C9.76332 16.2761 8.94166 16.0465 8.32541 15.8411C7.56416 15.5994 6.97207 15.4665 7.02041 15.0436C7.04457 14.8261 7.34666 14.6086 7.91457 14.379C11.4429 12.8444 13.7871 11.8294 14.9592 11.3461C18.3183 9.94442 19.0071 9.70275 19.4662 9.70275C19.5629 9.70275 19.7925 9.72692 19.9375 9.84775C20.0583 9.94442 20.0946 10.0773 20.1067 10.174C20.0946 10.2465 20.1187 10.464 20.1067 10.6332Z" fill="#7D17FF"/>
</svg>
