<svg width="29" height="29" viewBox="0 0 29 29" fill="none" xmlns="http://www.w3.org/2000/svg">
<path d="M18.2132 2.4165H10.7989C4.02736 2.4165 2.41666 4.02721 2.41666 10.7866V18.201C2.41666 24.9713 4.01528 26.5832 10.7868 26.5832H18.2011C24.9714 26.5832 26.5833 24.9845 26.5833 18.213V10.7987C26.5833 4.02721 24.9847 2.4165 18.2132 2.4165ZM21.9264 19.6594H20.1634C19.4964 19.6594 19.2959 19.1193 18.0996 17.923C17.0556 16.9165 16.6146 16.7908 16.3499 16.7908C15.985 16.7908 15.8847 16.8911 15.8847 17.395V18.9803C15.8847 19.4093 15.7458 19.6606 14.6257 19.6606C13.5386 19.5876 12.4844 19.2573 11.55 18.697C10.6155 18.1367 9.82757 17.3625 9.25099 16.438C7.88215 14.7343 6.92971 12.7346 6.46941 10.5981C6.46941 10.3335 6.5697 10.0943 7.07357 10.0943H8.83532C9.28845 10.0943 9.45157 10.296 9.6292 10.7613C10.4847 13.2794 11.9444 15.4689 12.5364 15.4689C12.7636 15.4689 12.8627 15.3686 12.8627 14.8019V12.2088C12.7878 11.0259 12.1594 10.9256 12.1594 10.4978C12.1675 10.385 12.2192 10.2798 12.3036 10.2044C12.388 10.1291 12.4984 10.0896 12.6114 10.0943H15.3809C15.7591 10.0943 15.8847 10.2828 15.8847 10.7359V14.2352C15.8847 14.6134 16.0479 14.7391 16.1614 14.7391C16.3886 14.7391 16.5638 14.6134 16.9795 14.1978C17.8723 13.109 18.6017 11.896 19.1448 10.5969C19.2003 10.4409 19.3054 10.3073 19.4439 10.2165C19.5825 10.1258 19.7469 10.0828 19.9121 10.0943H21.6751C22.2031 10.0943 22.3155 10.3589 22.2031 10.7359C21.5621 12.1719 20.7689 13.535 19.8372 14.8019C19.6475 15.0919 19.5714 15.243 19.8372 15.5825C20.0124 15.8471 20.6299 16.3631 21.0455 16.8537C21.6496 17.4562 22.1512 18.1533 22.5306 18.9175C22.6816 19.4081 22.4291 19.6594 21.9264 19.6594Z" fill="#7D17FF"/>
</svg>
